<?xml version="1.0" encoding="utf-8"?>
<!-- Generator: Adobe Illustrator 25.2.1, SVG Export Plug-In . SVG Version: 6.00 Build 0)  -->
<svg version="1.1" id="_x32_" xmlns="http://www.w3.org/2000/svg" xmlns:xlink="http://www.w3.org/1999/xlink" x="0px" y="0px"
	 viewBox="0 0 512 512" style="enable-background:new 0 0 512 512;" xml:space="preserve">
<style type="text/css">
	.st0{fill:#FFFFFF;}
</style>
<g>
	<path class="st0" d="M512,325.6c0-0.2,0-3.3,0-30l-138.3,0v30c0,13.2,10.7,23.8,23.8,23.8l90.6,0C501.3,349.4,512,338.8,512,325.6z
		"/>
	<path class="st0" d="M256,162.6C127.1,162.6,0,213,0,270.9c0,3,0,5.7,0,8.3l138.9,0c2.2-9.6,10.1-17.1,20.2-18.4
		c0,0,32.6-6.7,96.9-6.7c64.3,0,96.9,6.7,96.9,6.7c10.1,1.3,18,8.8,20.2,18.4l138.9,0c0-2.6,0-5.3,0-8.3
		C512,213,384.9,162.6,256,162.6z"/>
	<path class="st0" d="M138.3,325.6l0-30L0,295.5c0,26.7,0,29.8,0,30c0,13.2,10.7,23.8,23.8,23.8l90.6,0
		C127.6,349.4,138.3,338.8,138.3,325.6z"/>
</g>
</svg>
