<!--?xml version="1.0" encoding="utf-8"?-->
<!-- Generator: Adobe Illustrator 18.1.1, SVG Export Plug-In . SVG Version: 6.00 Build 0)  -->

<svg version="1.1" id="_x32_" xmlns="http://www.w3.org/2000/svg" xmlns:xlink="http://www.w3.org/1999/xlink" x="0px" y="0px" viewBox="0 0 512 512" style="width: 256px; height: 256px; opacity: 1;" xml:space="preserve">
<style type="text/css">
	.st0{fill:#4B4B4B;}
</style>
<g>
	<path class="st0" d="M145.686,204.919c9.028-9.028,9.028-23.649,0-32.677l-62.11-62.102c-9.028-9.028-23.641-9.02-32.677,0
		c-0.16,0.168-2.292,2.293-20.596,20.605l94.786,94.778L145.686,204.919z" style="fill: rgb(255, 255, 255);"></path>
	<path class="st0" d="M248.398,396.424c0,0-26.94-17.768-71.002-61.822c-44.061-44.069-61.822-71.01-61.822-71.01
		c-6.048-7.813-6.312-18.391-1.207-26.46l-95.225-95.218c-1.822,1.806-3.675,3.66-5.696,5.688
		c-39.699,39.699,12.807,161.378,101.186,249.756c88.378,88.379,210.064,140.893,249.756,101.186
		c2.029-2.03,3.883-3.867,5.697-5.688l-95.226-95.218C266.798,402.736,256.219,402.464,248.398,396.424z" style="fill: rgb(255, 255, 255);"></path>
	<path class="st0" d="M339.756,366.304c-9.035-9.028-23.664-9.028-32.692,0l-20.597,20.597l94.786,94.786
		c18.304-18.304,20.437-20.428,20.597-20.596c9.028-9.028,9.028-23.65,0-32.677L339.756,366.304z" style="fill: rgb(255, 255, 255);"></path>
	<path class="st0" d="M330.488,269.976l24.88-3.955c-4.203-26.461-16.563-51.995-36.976-72.408
		c-20.412-20.405-45.938-32.765-72.408-36.975l-3.962,24.879c21.451,3.436,41.992,13.358,58.554,29.92
		C317.13,228,327.061,248.532,330.488,269.976z" style="fill: rgb(255, 255, 255);"></path>
	<path class="st0" d="M258.345,78.247l-3.908,24.902c37.47,5.888,73.423,23.177,102.336,52.083
		c28.906,28.922,46.195,64.859,52.091,102.336l24.887-3.915c-6.663-42.512-26.389-83.466-59.161-116.238
		C341.81,104.643,300.856,84.926,258.345,78.247z" style="fill: rgb(255, 255, 255);"></path>
	<path class="st0" d="M430.54,81.474C385.472,36.398,329.178,9.234,270.72,0.006l-3.923,24.895
		c53.441,8.453,104.693,33.164,145.926,74.389c41.209,41.217,65.937,92.494,74.381,145.919L512,241.286
		C502.764,182.82,475.608,126.534,430.54,81.474z" style="fill: rgb(255, 255, 255);"></path>
</g>
</svg>
